<svg xmlns="http://www.w3.org/2000/svg" xmlns:xlink="http://www.w3.org/1999/xlink" version="1.0" x="0px" y="0px" viewBox="0 0 74 92.5" style="enable-background:new 0 0 74 74;" xml:space="preserve"><g><path d="M45.14,41.77h2.14l2.49,4.13c0.19,0.31,0.51,0.49,0.86,0.49h0c0.35,0,0.67-0.18,0.86-0.49l2.49-4.13h14.09   c0.83,0,1.5-0.67,1.5-1.5V24.5c0-0.83-0.67-1.5-1.5-1.5H44.98c-0.83,0-1.5,0.67-1.5,1.5v13.42c-1.67-2.56-2.37-5.46-2.37-9.61   v-9.93c0-3.79-1.47-7.34-4.15-10c-2.67-2.67-6.23-4.15-10-4.15c-7.8,0-14.14,6.35-14.14,14.15v9.92c0,2.47-0.48,4.88-1.41,7.16   c-0.94,2.3-2.3,4.36-4.03,6.1c-0.1,0.1-0.15,0.24-0.14,0.39c0.01,0.14,0.08,0.28,0.19,0.36c1.11,0.85,2.27,1.64,3.44,2.37   c-3.83,1.7-6.43,5.54-6.43,9.85v14.61c0,0.28,0.22,0.5,0.5,0.5l59.08,0.13c0.7,0,1.31-0.48,1.46-1.17l3.81-16.67   c0.1-0.45,0-0.91-0.29-1.27c-0.29-0.36-0.71-0.57-1.17-0.57H45.1c-0.7,0-1.31,0.48-1.46,1.17L40.5,64.99H29.8   c-0.83,0-1.5,0.67-1.5,1.5v1.77c0,0.17,0.04,0.34,0.09,0.49L16.12,68.7v-6.1c0-0.28-0.22-0.5-0.5-0.5s-0.5,0.22-0.5,0.5v6.1   l-9.69-0.05V54.53c0-4.22,2.76-7.95,6.69-9.27c0.01,0,0.02,0,0.03,0c0.11-0.04,0.23-0.08,0.35-0.11c0.22-0.06,0.45-0.13,0.68-0.18   l3.86-0.83l1.17,5.32c0.04,0.17,0.16,0.31,0.33,0.37c0.05,0.02,0.11,0.03,0.16,0.03c0.12,0,0.23-0.04,0.32-0.12l1.6-1.35   l5.13,12.11c0.08,0.18,0.26,0.3,0.46,0.3s0.38-0.12,0.46-0.31l5.12-12.11l1.6,1.35c0.09,0.08,0.21,0.12,0.32,0.12   c0.05,0,0.11-0.01,0.16-0.03c0.17-0.06,0.29-0.2,0.33-0.37l1.24-5.62l5.28,1.14c1.15,0.25,2.22,0.68,3.18,1.3   c0.08,0.05,0.18,0.08,0.27,0.08c0.16,0,0.33-0.08,0.42-0.23c0.15-0.23,0.08-0.54-0.15-0.69c-0.48-0.31-0.99-0.58-1.52-0.8   C43.72,43.88,44.52,42.75,45.14,41.77z M44.61,51.48c0.05-0.23,0.25-0.39,0.49-0.39h22.72c0.15,0,0.3,0.07,0.39,0.19   s0.13,0.27,0.1,0.42l-3.81,16.67c-0.05,0.23-0.25,0.39-0.49,0.39l-22.73,0c-0.15-0.01-0.28-0.07-0.37-0.18   c-0.1-0.12-0.13-0.27-0.1-0.42L44.61,51.48z M29.3,68.26v-1.77c0-0.28,0.22-0.5,0.5-0.5h10.47l-0.44,1.94   c-0.06,0.28-0.04,0.57,0.06,0.83H29.8h0C29.52,68.76,29.3,68.54,29.3,68.26z M44.48,24.5c0-0.28,0.22-0.5,0.5-0.5h23.09   c0.28,0,0.5,0.22,0.5,0.5v15.77c0,0.28-0.22,0.5-0.5,0.5H53.7c-0.18,0-0.34,0.09-0.43,0.24l-2.64,4.37l-2.64-4.37   c-0.09-0.15-0.25-0.24-0.43-0.24h-2.58c-0.28,0-0.5-0.22-0.5-0.5V24.5z M19.01,48.43l-0.99-4.5l0.59-0.13   c0.74-0.15,1.4-0.49,1.96-0.95l2.5,2.17L19.01,48.43z M31.89,36.55c-0.06,0.04-0.12,0.09-0.16,0.16c-1.44,1.31-3.06,2.14-4.78,2.14   c-1.73,0-3.36-0.85-4.82-2.2c-0.01-0.01-0.03-0.03-0.04-0.04c-3.08-2.87-5.35-7.95-5.95-11.97c-0.13-0.87,0.31-1.71,1.08-2.09   c2.75-1.37,6.02-2.06,9.71-2.06c0.01,0,0.01,0,0.02,0c4.21,0,7.41,0.66,9.8,2c0.71,0.4,1.1,1.16,1,1.93   C37.21,28.48,34.98,33.64,31.89,36.55z M22.26,38.06c1.42,1.1,3,1.78,4.69,1.78c1.68,0,3.26-0.7,4.7-1.83v1.3   c0,0.71,0.18,1.37,0.47,1.98l-3.87,3.35c-0.01,0.01-0.02,0.03-0.03,0.04c-0.02,0.02-0.04,0.04-0.05,0.07   c-0.02,0.04-0.04,0.07-0.06,0.11c0,0.01-0.01,0.02-0.01,0.02l-1.89,7.2l-1.89-7.2c0-0.01-0.01-0.02-0.02-0.04   c-0.01-0.03-0.03-0.06-0.04-0.09c-0.02-0.03-0.04-0.06-0.07-0.09c-0.01-0.01-0.02-0.03-0.03-0.04l-2.89-2.51   c0.62-0.79,0.99-1.77,0.99-2.82V38.06z M26.21,59.02l-4.79-11.31l2.13-1.79l2.17,8.27c0.06,0.22,0.26,0.37,0.48,0.37   s0.43-0.15,0.48-0.37l2.17-8.27L31,47.71L26.21,59.02z M33.41,48.43l-1.44-1.21c-0.01-0.01-0.01-0.01-0.02-0.02l-2.6-2.19l3.3-2.86   c0.48,0.61,1.11,1.09,1.84,1.39L33.41,48.43z M40.94,43.99l-5.44-1.17c-1.65-0.34-2.84-1.82-2.84-3.51v-2.17   c3.22-3.13,5.54-8.4,6.1-12.6c0.16-1.18-0.43-2.33-1.5-2.93c-2.54-1.43-5.91-2.13-10.29-2.13c-0.01,0-0.01,0-0.02,0   c-3.85,0-7.26,0.73-10.15,2.17c-1.16,0.58-1.82,1.84-1.63,3.14c0.6,4.06,2.86,9.31,6.11,12.42v2.11c0,1.69-1.2,3.17-2.85,3.51   l-5.42,1.16c-0.01,0-0.02,0-0.03,0c-0.15,0.03-0.28,0.08-0.42,0.11c-0.18,0.04-0.35,0.09-0.52,0.14c-1.2-0.73-2.39-1.53-3.54-2.39   c1.64-1.75,2.93-3.77,3.85-6.01c0.99-2.4,1.49-4.94,1.49-7.54v-9.92c0-7.25,5.89-13.15,13.14-13.15c3.51,0,6.81,1.37,9.3,3.85   c2.48,2.47,3.85,5.78,3.85,9.3v9.93c0,5,0.98,8.3,3.37,11.32v0.64c0,0.51,0.26,0.96,0.64,1.23c-0.86,1.33-1.67,2.29-2.27,2.73   C41.55,44.14,41.25,44.06,40.94,43.99z"/><path d="M54.45,63.32c1.59,0,3.04-1.24,3.3-2.83c0,0,0,0,0,0c0.13-0.8-0.06-1.55-0.55-2.12c-0.48-0.56-1.17-0.87-1.96-0.87   c-1.59,0-3.04,1.24-3.3,2.83c-0.13,0.78,0.07,1.55,0.55,2.12C52.97,63,53.67,63.32,54.45,63.32z M52.93,60.48   c0.18-1.1,1.22-1.99,2.31-1.99c0.49,0,0.92,0.18,1.2,0.52c0.29,0.34,0.4,0.81,0.32,1.31c-0.18,1.1-1.22,1.99-2.31,1.99   c-0.49,0-0.91-0.19-1.2-0.52C52.96,61.45,52.85,60.98,52.93,60.48z"/><path d="M47.96,37.76h3.29c0.28,0,0.5-0.22,0.5-0.5v-6.29c0-0.28-0.22-0.5-0.5-0.5h-3.29c-0.28,0-0.5,0.22-0.5,0.5v6.29   C47.46,37.54,47.68,37.76,47.96,37.76z M48.46,31.48h2.29v5.29h-2.29V31.48z"/><path d="M54.88,37.76h3.29c0.28,0,0.5-0.22,0.5-0.5v-10.5c0-0.28-0.22-0.5-0.5-0.5h-3.29c-0.28,0-0.5,0.22-0.5,0.5v10.5   C54.38,37.54,54.6,37.76,54.88,37.76z M55.38,27.27h2.29v9.5h-2.29V27.27z"/><path d="M61.8,37.76h3.29c0.28,0,0.5-0.22,0.5-0.5v-7.81c0-0.28-0.22-0.5-0.5-0.5H61.8c-0.28,0-0.5,0.22-0.5,0.5v7.81   C61.3,37.54,61.52,37.76,61.8,37.76z M62.3,29.96h2.29v6.81H62.3V29.96z"/></g><text x="0" y="89" fill="#000000" font-size="5px" font-weight="bold" font-family="'Helvetica Neue', Helvetica, Arial-Unicode, Arial, Sans-serif">Created by Azam Ishaq</text><text x="0" y="94" fill="#000000" font-size="5px" font-weight="bold" font-family="'Helvetica Neue', Helvetica, Arial-Unicode, Arial, Sans-serif">from the Noun Project</text></svg>